<?xml version="1.0" encoding="UTF-8" standalone="no"?>
<!-- Created with Inkscape (http://www.inkscape.org/) -->

<svg
   width="48.6833mm"
   height="43.503395mm"
   viewBox="0 0 48.6833 43.503395"
   version="1.1"
   id="svg1"
   xml:space="preserve"
   xmlns="http://www.w3.org/2000/svg"
   xmlns:svg="http://www.w3.org/2000/svg"><defs
     id="defs1" /><g
     id="layer1"
     transform="translate(-376.12916,-92.832508)"><path
       style="fill:#ffffff;stroke:none"
       d="m 394.12083,96.013544 c 2.87842,-2.65117 7.36456,0.94798 6.52638,4.497906 -0.62188,2.63388 -2.89476,4.27204 -4.93888,5.77674 -3.94813,2.90626 -8.33741,4.85171 -12.96459,6.3941 -2.39034,0.79677 -5.62582,1.28753 -6.61458,1.85208 1.92071,0.85927 4.295,1.10486 6.35,1.6757 4.31306,1.19807 8.47087,3.35419 12.17083,5.82083 1.95655,1.30437 3.89871,2.67551 5.20347,4.67431 0.70191,1.07526 1.18503,2.68821 0.79375,3.96875 -0.8292,2.71373 -4.33353,4.40098 -6.52638,2.38125 1.68207,0.30985 4.3743,-0.6594 3.0427,-2.91042 -0.75959,-1.28408 -2.84914,-1.56543 -3.74826,-0.26458 -0.49952,0.7227 -0.45337,1.84813 -0.17639,2.64583 0.90366,2.60253 6.66124,5.46457 8.73125,2.64583 0.53161,-0.72389 0.35278,-1.80297 0.35278,-2.64583 4.17079,-0.10976 2.70003,-5.8096 -0.79375,-6.08542 0.51875,-0.73096 1.44595,-1.20101 1.76389,-2.11666 0.54966,-1.58303 -0.61618,-3.36068 -2.02847,-3.96875 -1.33148,-0.57328 -2.82108,-0.63684 -4.23334,-0.79375 -2.03525,-0.22615 -4.01253,-0.87872 -5.82083,-1.80799 -1.06188,-0.54569 -3.95933,-1.94465 -3.66007,-3.48368 0.23145,-1.19035 2.16788,-2.19505 3.1309,-2.68993 1.37384,-0.706 2.692,-1.39868 4.23334,-1.7198 2.22945,-0.46447 4.86505,-0.24674 6.87916,-1.4552 2.47716,-1.48629 1.67588,-4.13341 -0.26458,-5.51216 1.20923,-0.4455 2.5252,-1.16984 3.1309,-2.38125 0.96143,-1.922856 -0.35258,-3.812066 -2.33715,-3.968746 0,-0.86126 0.16503,-1.89666 -0.35278,-2.64583 -0.64005,-0.92603 -1.77684,-1.10189 -2.82222,-1.05833 -2.43813,0.10159 -5.25218,1.53044 -5.99722,3.96875 -0.84647,2.77027 2.97587,4.619346 4.14514,1.85208 0.92937,-2.19953 -1.51384,-3.1267 -3.175,-2.64583 m 0,0 -0.26459,0.26458 0.26459,-0.26458 m 13.49375,11.641656 c 0.16965,0.80587 0.61226,1.52648 0.52916,2.38126 -0.17055,1.75422 -1.95894,2.56675 -3.43958,2.99861 -1.52847,0.4458 -3.02672,-0.1205 -4.49792,-0.52917 -1.85308,-0.51475 -3.61218,-0.96295 -5.55625,-0.88194 -1.54494,0.0644 -2.97392,0.62471 -4.23333,1.4993 -0.4466,0.31014 -1.23472,0.78755 -1.23472,1.41111 0,0.62356 0.78812,1.10098 1.23472,1.41111 1.21273,0.84218 2.74301,1.47861 4.23333,1.49931 3.34373,0.0464 6.525,-1.91111 9.78959,-1.36701 1.45019,0.24169 3.44082,0.96625 3.70416,2.68993 0.14534,0.9513 -0.34203,1.75693 -0.52916,2.64583 1.5282,-0.0402 3.4651,-0.80822 3.43958,-2.64583 -0.0103,-0.7418 -0.54764,-1.44865 -0.79375,-2.11667 l 7.40833,-1.05833 7.14375,-1.05834 -8.46666,-1.32291 -6.35,-1.05834 c 2.31975,-2.08777 0.22359,-4.49792 -2.38125,-4.49792 m -13.49375,25.13542 -0.26459,0.26459 z"
       id="path1190" /></g></svg>
