<?xml version="1.0" encoding="UTF-8" standalone="no"?>
<!-- Created with Inkscape (http://www.inkscape.org/) -->

<svg
   width="66.31572mm"
   height="59.52681mm"
   viewBox="0 0 66.31572 59.52681"
   version="1.1"
   id="svg1"
   xmlns="http://www.w3.org/2000/svg"
   xmlns:svg="http://www.w3.org/2000/svg">
  <defs
     id="defs1" />
  <g
     id="layer1"
     transform="translate(-275.26419,-136.33883)">
    <path
       id="path937"
       d="m 306.07934,136.33883 c -0.48524,0.0323 -0.90936,0.70085 -1.33304,2.00715 -0.81296,2.50633 -1.96968,11.9639 -2.4233,18.19551 -0.18495,1.29456 -0.39024,3.58792 -0.59461,6.0714 -0.0807,0.97873 -1.1695,1.7439 -1.73397,1.66371 -0.63113,-0.0892 -0.90763,-0.53392 -2.51887,-4.03293 -1.12271,-2.43804 -2.36644,-1.92108 -3.1812,1.32291 -0.20629,0.82096 -0.64948,2.72839 -0.98537,4.23846 -0.33585,1.51004 -0.711,2.74638 -0.83235,2.74638 -0.12122,0 -0.50131,-0.77131 -0.84497,-1.71362 -0.90401,-2.47944 -1.30935,-2.79292 -3.61589,-2.79292 -2.1768,0 -11.51831,-0.26626 -12.26021,0.40509 -1.27005,1.14946 -0.0666,1.97148 3.4772,2.37598 1.45204,0.166 9.32004,-5.9e-4 9.63136,0.19447 0.33548,0.21049 0.91066,2.55303 1.29327,3.74107 0.35539,1.10289 0.96662,2.388 1.35925,2.85471 1.16285,1.38189 2.55257,1.04355 3.29031,-0.80018 0.24212,-0.60561 0.63787,-2.52423 0.88052,-4.26379 0.24247,-1.73963 0.51724,-3.28474 0.60898,-3.43323 0.0919,-0.14879 0.46632,0.37801 0.83311,1.16974 0.75432,1.62814 1.81812,2.26261 3.79363,2.26261 1.41845,0 2.59562,-1.04099 3.05597,-2.69907 0.17262,-0.62241 0.28881,-1.1945 0.34272,-1.71789 l 0.73081,-5.26185 0.5709,6.25064 c 0.29639,7.72594 1.3066,22.17163 1.90063,25.84097 0.33802,2.08893 0.88736,3.62878 1.62229,4.54973 0.15416,0.19352 0.44,0.35177 0.63434,0.35177 1.01334,0 1.32361,-1.58858 1.81856,-9.29309 0.1643,-2.5555 1.04427,-12.7698 1.35248,-15.23852 0.42401,-3.39757 0.84953,-5.63509 0.93719,-7.21237 0.0215,0.002 0.0564,0.002 0.0725,0.012 0.1965,0.0754 0.51499,1.00546 0.708,2.06719 0.61411,3.37732 2.28511,10.03336 2.62118,10.43835 0.17841,0.21504 0.58929,0.35143 0.91182,0.30553 0.54507,-0.0782 1.25484,-1.44681 1.61469,-2.85125 1.05796,-2.67385 1.92817,-7.10382 1.94543,-8.16315 0.0108,-0.82665 0.0594,-0.77972 0.58361,0.5836 0.3127,0.81353 0.84408,1.63724 1.18163,1.83037 0.8393,0.48043 16.5534,0.42939 17.45593,-0.0536 0.85996,-0.46024 0.77579,-1.57922 -0.16467,-2.19488 -0.004,-0.002 -3.9e-4,-0.002 -0.004,-0.002 -0.25478,-0.14209 -0.40859,-0.31701 -1.26287,-0.40346 -12.49629,0.0538 -13.75702,-0.16528 -14.32207,-0.93802 -0.2016,-0.27578 -0.64091,-1.33876 -0.97527,-2.36159 -1.43576,-4.39166 -3.48846,-4.12621 -4.76454,0.61581 -0.3192,1.18643 -0.96644,5.40792 -1.2273,6.31409 -1.06752,-1.37014 -1.45762,-2.90655 -2.14419,-7.6091 -0.67763,-4.64122 -1.0606,-6.26299 -1.58088,-6.69472 -1.11905,-0.92878 -2.1819,1.18 -2.88342,5.71697 -0.18964,1.22592 -0.34925,2.68839 -0.40512,3.59477 -0.40783,2.24584 -0.74999,4.93932 -0.84162,6.21095 -0.0843,1.16806 -0.44775,3.5761 -0.80777,5.35073 l -0.65551,3.22713 -0.33259,-7.04073 c -0.14584,-3.08533 -0.42825,-6.63362 -0.62255,-8.18341 0.007,0.47361 -0.18134,-6.82071 -0.27217,-10.25992 -0.0579,-5.31812 0.0253,-8.96637 0.22839,-10.13807 0.67007,-3.85625 0.67173,-3.81441 -0.16469,-5.35164 -0.67011,-1.23116 -1.21749,-1.83154 -1.70267,-1.79822 z m 20.20686,40.07545 c -0.004,0.002 -0.0108,0.009 -0.0108,0.012 0.0179,-0.002 0.0402,-0.002 0.0601,-0.012 0.0288,-0.009 -0.0253,-2.4e-4 -0.0456,-5.8e-4 z"
       style="fill:#ffffff;stroke-width:0.281598" />
  </g>
</svg>
