<?xml version="1.0" encoding="UTF-8" standalone="no"?>
<!-- Created with Inkscape (http://www.inkscape.org/) -->

<svg
   width="182.9129mm"
   height="182.91292mm"
   viewBox="0 0 182.9129 182.91292"
   version="1.1"
   id="svg1"
   xmlns="http://www.w3.org/2000/svg"
   xmlns:svg="http://www.w3.org/2000/svg">
  <defs
     id="defs1" />
  <g
     id="layer1"
     transform="translate(-15.789296,-65.232245)">
    <rect
       y="65.232246"
       x="15.789296"
       height="182.91292"
       width="182.91292"
       id="rect924"
       style="fill:#000000;fill-opacity:1;stroke:none;stroke-width:13.5467;stroke-miterlimit:4;stroke-dasharray:none;stroke-dashoffset:0;stroke-opacity:1" />
    <g
       transform="matrix(1.6200583,-0.09838424,0.09838424,1.6200583,177.87063,-175.49227)"
       id="g932">
      <path
         style="opacity:1;fill:#ffffff;fill-opacity:1;stroke:none;stroke-width:1;stroke-miterlimit:4;stroke-dasharray:none;stroke-dashoffset:0;stroke-opacity:1"
         id="path926"
         d="m -48.912218,216.44679 c 0.194251,0.0431 0.380248,0.006 0.569401,-0.0409 0.232365,-0.0528 0.416896,-0.18293 0.579033,-0.35167 0.103166,-0.14981 0.19363,-0.30772 0.285435,-0.46457 0.185933,-0.26873 0.06976,-0.23805 0.64158,0.22805 2.62e-4,2.1e-4 -0.09185,0.13514 -0.0971,0.14284 -0.121205,0.18301 -0.233952,0.37085 -0.299407,0.58116 -0.05037,0.22147 -0.05738,0.44969 -0.06247,0.67588 -5.29e-4,0.16689 0.05512,0.31606 0.122602,0.46571 0.06966,0.15579 0.107964,0.25511 0.276977,0.29534 0.260503,0.0572 0.499917,-0.0114 0.731192,-0.12857 0.39938,-0.24603 0.746913,-0.56658 1.084222,-0.89006 0.430446,-0.40106 0.718762,-0.90584 0.97313,-1.42897 0.2271,-0.47779 0.405109,-0.97647 0.586986,-1.4726 0.09846,-0.27476 0.159935,-0.55998 0.187516,-0.85007 0.0052,-0.0608 0.01035,-0.1265 -0.0057,-0.18688 -0.0032,-0.0119 -0.0013,0.0257 0.0039,0.0369 0.0072,0.0153 0.01855,0.0282 0.02783,0.0423 -0.195513,0.2065 0.159989,0.0205 0.154157,0.0777 -0.0016,0.0143 -0.0254,0.0138 -0.03733,0.0219 -0.02127,0.0144 -0.04181,0.0298 -0.0622,0.0455 -0.119155,0.0912 -0.08914,0.0688 -0.206049,0.17791 -0.264721,0.2651 -0.495581,0.55547 -0.672349,0.88564 -0.193381,0.41884 -0.22257,0.886 -0.214656,1.34063 0.02955,0.46286 0.125878,0.91736 0.222043,1.36992 0.07037,0.31498 0.150718,0.62737 0.23267,0.93944 0.03625,0.078 0.04971,0.28867 0.168439,0.29678 0.120073,0.0324 0.228018,0.001 0.339124,-0.0477 0.270933,-0.16379 0.483285,-0.40753 0.688663,-0.64457 0.205504,-0.23962 0.311941,-0.52546 0.380748,-0.82844 0.0071,-0.0406 0.01371,-0.0813 0.02122,-0.12181 0.02254,-0.12153 0.0223,-0.10001 0.03541,-0.19645 0.0016,-0.0112 -0.01593,0.029 -0.0055,0.0333 0.57577,0.2393 0.64307,0.009 0.567976,0.23198 -0.112343,0.28408 -0.183045,0.58095 -0.233752,0.88143 -0.0483,0.34614 -0.07754,0.69654 -0.03751,1.04476 0.03521,0.15323 0.13095,0.2124 0.268314,0.26601 0.189508,0.0667 0.274172,0.0104 0.420298,-0.10826 0.237948,-0.25671 0.397907,-0.57691 0.556358,-0.88634 0.132914,-0.2647 0.209675,-0.55452 0.347327,-0.81659 0.189484,0.11697 0.398973,0.20646 0.568449,0.3509 0.02745,0.0234 -0.0254,0.0675 -0.03773,0.10141 -0.07894,0.21702 -0.159422,0.43316 -0.242107,0.64879 -0.14324,0.40148 -0.225994,0.82009 -0.294817,1.23964 -0.08366,0.5794 -0.08961,1.16619 -0.09863,1.75042 -0.02445,0.47771 0.03439,0.96289 -0.04116,1.43767 -0.01357,0.0853 -0.0362,0.169 -0.05431,0.2535 -0.03077,0.0821 -0.05321,0.16787 -0.09231,0.24638 -0.268475,0.53903 -0.735753,0.66372 -1.277339,0.78314 -0.525905,0.0595 -1.084681,0.0561 -1.577682,-0.16386 -0.07713,-0.0344 -0.147955,-0.0815 -0.221932,-0.12225 -0.314084,-0.24627 -0.471652,-0.52252 -0.353523,-0.93128 0.06553,-0.22675 0.163922,-0.31081 0.309173,-0.49273 0.575075,-0.58286 1.352635,-0.85781 2.103409,-1.13611 0.660032,-0.24056 1.351703,-0.41641 1.977027,-0.74463 0.09101,-0.0478 0.177255,-0.10411 0.265883,-0.15617 0.374819,-0.24616 0.687937,-0.57495 0.883054,-0.98163 0.03816,-0.0795 0.06606,-0.16361 0.09909,-0.24541 0.165801,-0.5303 0.216185,-1.08763 0.219374,-1.64076 -0.0141,-0.1071 0.01707,-0.39616 -0.06577,-0.48954 -0.0021,-0.002 -0.0097,0.002 -0.0081,0.005 0.01259,0.0219 0.03056,0.0403 0.04584,0.0604 0.01794,0.011 0.03587,0.022 0.05381,0.033 -0.466026,-0.0398 -0.409739,-0.69886 0.05629,-0.65906 v 0 c 0.06942,0.0154 0.138848,0.0308 0.208272,0.0462 0.05635,0.0427 0.119689,0.0774 0.169032,0.12803 0.207891,0.21323 0.189013,0.61062 0.202099,0.88092 -0.0061,0.6382 -0.06587,1.28062 -0.269878,1.88914 -0.04507,0.10638 -0.08393,0.21561 -0.135212,0.31914 -0.251974,0.50869 -0.651775,0.91934 -1.125234,1.22608 -0.105796,0.0611 -0.209023,0.1268 -0.317383,0.18317 -0.643014,0.33455 -1.349449,0.52269 -2.028441,0.76618 -0.643412,0.23804 -1.318935,0.46277 -1.828089,0.94298 -0.03616,0.0383 -0.07547,0.0737 -0.108479,0.11475 -0.02344,0.0291 -0.03908,0.0638 -0.0601,0.0947 -0.01751,0.0258 -0.05653,0.0449 -0.05443,0.076 0.0037,0.0544 0.06159,0.1037 0.09197,0.13796 0.04061,0.0251 0.07881,0.0546 0.121835,0.0754 0.373095,0.17962 0.808162,0.17132 1.209858,0.13736 0.238072,-0.0488 0.53504,-0.0877 0.718325,-0.26923 0.0857,-0.0849 0.09712,-0.14569 0.143867,-0.25682 0.01421,-0.061 0.0321,-0.12121 0.0426,-0.18293 0.07701,-0.45296 0.0079,-0.9191 0.03722,-1.3751 0.0096,-0.61682 0.01709,-1.23627 0.107354,-1.84775 0.07673,-0.46355 0.169381,-0.92594 0.329862,-1.3689 0.08207,-0.21403 0.161395,-0.42876 0.240281,-0.64397 0.01527,-0.0417 0.003,-0.13078 0.04692,-0.12459 0.218165,0.0307 0.415748,0.14597 0.62362,0.21895 -0.04748,0.081 -0.07467,0.17122 -0.108844,0.2582 -0.07229,0.18395 -0.148849,0.3664 -0.231838,0.54579 -0.205008,0.39856 -0.414386,0.8106 -0.750793,1.11557 -0.05681,0.0403 -0.110508,0.0854 -0.170431,0.12089 -0.287081,0.17011 -0.606695,0.18034 -0.913612,0.06 -0.396266,-0.18714 -0.56044,-0.36612 -0.656298,-0.79955 -0.04156,-0.40942 -0.01871,-0.82019 0.04325,-1.22685 0.06263,-0.36116 0.147696,-0.71917 0.290407,-1.0581 0.147518,-0.28348 0.06739,-0.21777 0.687567,0.0161 0.0336,0.0127 -0.03477,0.2974 -0.03887,0.31922 -0.0097,0.0517 -0.01873,0.10363 -0.02811,0.15544 -0.09611,0.40754 -0.248898,0.79136 -0.525838,1.11285 -0.27636,0.31712 -0.56588,0.63876 -0.949028,0.82747 -0.315151,0.11499 -0.591164,0.15088 -0.90528,0.006 -0.04566,-0.0291 -0.09449,-0.0538 -0.136988,-0.0873 -0.19321,-0.15254 -0.279043,-0.38813 -0.343974,-0.61639 -0.08449,-0.32218 -0.167458,-0.64467 -0.239888,-0.96987 -0.105113,-0.49467 -0.208864,-0.99193 -0.236426,-1.49827 -0.0061,-0.56866 0.04108,-1.14678 0.294846,-1.66556 0.03998,-0.0727 0.07701,-0.1472 0.119941,-0.21825 0.187511,-0.31027 0.437669,-0.57766 0.686335,-0.8389 0.185086,-0.16786 0.514651,-0.4651 0.790421,-0.42551 0.08004,0.0115 0.152776,0.0531 0.229167,0.0796 0.03495,0.0353 0.07518,0.0661 0.104865,0.10589 0.122631,0.16452 0.120742,0.38219 0.106547,0.57623 -0.03437,0.34578 -0.106553,0.68612 -0.224814,1.01358 -0.189666,0.51736 -0.375988,1.03712 -0.613582,1.53503 -0.290075,0.59244 -0.622519,1.162 -1.110133,1.61664 -0.387715,0.37065 -0.787731,0.73831 -1.254379,1.0081 -0.07225,0.0337 -0.142481,0.0722 -0.216755,0.10121 -0.326784,0.12767 -0.682564,0.14201 -1.020873,0.0556 -0.0569,-0.0221 -0.116163,-0.0389 -0.170699,-0.0663 -0.242398,-0.12189 -0.386678,-0.34449 -0.492019,-0.5855 -0.104452,-0.23921 -0.183356,-0.48404 -0.178993,-0.74859 0.0068,-0.29061 0.01884,-0.58391 0.09502,-0.86612 0.09022,-0.26814 0.221742,-0.51549 0.381986,-0.74883 0.0046,-0.007 0.05933,-0.091 0.06384,-0.0888 0.540809,0.26973 0.714558,0.15094 0.508291,0.42586 -0.119689,0.20345 -0.233687,0.41207 -0.385111,0.59438 -0.252598,0.25164 -0.540533,0.44851 -0.89367,0.52979 -0.275437,0.0658 -0.552704,0.10873 -0.834287,0.0506 -0.461359,-0.0769 -0.352615,-0.72935 0.108741,-0.65246 z" />
      <path
         style="opacity:1;fill:#ffffff;fill-opacity:1;stroke:none;stroke-width:1;stroke-miterlimit:4;stroke-dasharray:none;stroke-dashoffset:0;stroke-opacity:1"
         id="path928"
         d="m -46.695545,212.78945 c 0.06478,0.34103 0.173578,0.67208 0.304356,0.99298 0.09782,0.22017 0.212505,0.43285 0.329028,0.64361 0.03558,0.0643 0.106868,0.20278 0.172265,0.26057 0.009,0.008 0.02384,0.003 0.03576,0.005 0.0061,-0.005 0.01209,-0.01 0.01815,-0.0146 0.451847,0.12083 0.280982,0.75984 -0.170865,0.63902 v 0 c -0.07352,-0.0261 -0.147035,-0.0523 -0.220549,-0.0784 -0.06229,-0.0492 -0.131009,-0.0912 -0.186875,-0.14754 -0.08606,-0.0868 -0.173803,-0.24811 -0.231664,-0.35274 -0.127807,-0.23112 -0.252812,-0.46472 -0.358561,-0.70688 -0.146889,-0.36634 -0.272299,-0.74284 -0.343506,-1.13198 -0.07689,-0.46136 0.575567,-0.5701 0.65246,-0.10874 z" />
      <path
         style="opacity:1;fill:#ffffff;fill-opacity:1;stroke:none;stroke-width:1;stroke-miterlimit:4;stroke-dasharray:none;stroke-dashoffset:0;stroke-opacity:1"
         id="path930"
         d="m -45.76914,213.45874 c -0.183312,0.18115 -0.385829,0.34224 -0.593633,0.49416 -0.281985,0.19939 -0.553265,0.41286 -0.824934,0.62586 -0.111728,0.0829 -0.214524,0.17664 -0.320664,0.26636 -0.357251,0.30189 -0.784183,-0.20334 -0.426929,-0.50523 v 0 c 0.112355,-0.0949 0.221422,-0.1938 0.339513,-0.28171 0.278022,-0.21791 0.555697,-0.43625 0.844167,-0.64037 0.180694,-0.13031 0.355359,-0.27096 0.514757,-0.4268 0.330729,-0.33072 0.798452,0.137 0.467723,0.46773 z" />
    </g>
    <rect
       y="76.526222"
       x="27.083363"
       height="160.32483"
       width="160.32484"
       id="rect934"
       style="fill:none;fill-opacity:1;stroke:#ffffff;stroke-width:2.28384;stroke-miterlimit:4;stroke-dasharray:none;stroke-dashoffset:0;stroke-opacity:1" />
    <path
       id="path937"
       d="m 103.36201,131.2055 c -0.48524,0.0323 -0.90936,0.70085 -1.33304,2.00715 -0.81296,2.50633 -1.96968,11.9639 -2.4233,18.19551 -0.18495,1.29456 -0.39024,3.58792 -0.59461,6.0714 -0.0807,0.97873 -1.1695,1.7439 -1.73397,1.66371 -0.63113,-0.0892 -0.90763,-0.53392 -2.51887,-4.03293 -1.12271,-2.43804 -2.36644,-1.92108 -3.1812,1.32291 -0.20629,0.82096 -0.64948,2.72839 -0.98537,4.23846 -0.33585,1.51004 -0.711,2.74638 -0.83235,2.74638 -0.12122,0 -0.50131,-0.77131 -0.84497,-1.71362 -0.90401,-2.47944 -1.30935,-2.79292 -3.61589,-2.79292 -2.1768,0 -11.51831,-0.26626 -12.26021,0.40509 -1.27005,1.14946 -0.0666,1.97148 3.4772,2.37598 1.45204,0.166 9.32004,-5.9e-4 9.63136,0.19447 0.33548,0.21049 0.91066,2.55303 1.29327,3.74107 0.35539,1.10289 0.96662,2.388 1.35925,2.85471 1.16285,1.38189 2.55257,1.04355 3.29031,-0.80018 0.24212,-0.60561 0.63787,-2.52423 0.88052,-4.26379 0.24247,-1.73963 0.51724,-3.28474 0.60898,-3.43323 0.0919,-0.14879 0.46632,0.37801 0.83311,1.16974 0.75432,1.62814 1.81812,2.26261 3.79363,2.26261 1.41845,0 2.59562,-1.04099 3.05597,-2.69907 0.17262,-0.62241 0.28881,-1.1945 0.34272,-1.71789 l 0.73081,-5.26185 0.5709,6.25064 c 0.29639,7.72594 1.3066,22.17163 1.90063,25.84097 0.33802,2.08893 0.88736,3.62878 1.62229,4.54973 0.15416,0.19352 0.44,0.35177 0.63434,0.35177 1.01334,0 1.32361,-1.58858 1.81856,-9.29309 0.1643,-2.5555 1.04427,-12.7698 1.35248,-15.23852 0.42401,-3.39757 0.84953,-5.63509 0.93719,-7.21237 0.0215,0.002 0.0564,0.002 0.0725,0.012 0.1965,0.0754 0.51499,1.00546 0.708,2.06719 0.61411,3.37732 2.28511,10.03336 2.62118,10.43835 0.17841,0.21504 0.58929,0.35143 0.91182,0.30553 0.54507,-0.0782 1.25484,-1.44681 1.61469,-2.85125 1.05796,-2.67385 1.92817,-7.10382 1.94543,-8.16315 0.0108,-0.82665 0.0594,-0.77972 0.58361,0.5836 0.3127,0.81353 0.84408,1.63724 1.18163,1.83037 0.8393,0.48043 16.5534,0.42939 17.45593,-0.0536 0.85996,-0.46024 0.77579,-1.57922 -0.16467,-2.19488 -0.004,-0.002 -3.9e-4,-0.002 -0.004,-0.002 -0.25478,-0.14209 -0.40859,-0.31701 -1.26287,-0.40346 -12.49629,0.0538 -13.75702,-0.16528 -14.32207,-0.93802 -0.2016,-0.27578 -0.64091,-1.33876 -0.97527,-2.36159 -1.43576,-4.39166 -3.48846,-4.12621 -4.76454,0.61581 -0.3192,1.18643 -0.96644,5.40792 -1.2273,6.31409 -1.06752,-1.37014 -1.45762,-2.90655 -2.14419,-7.6091 -0.67763,-4.64122 -1.0606,-6.26299 -1.58088,-6.69472 -1.11905,-0.92878 -2.1819,1.18 -2.88342,5.71697 -0.18964,1.22592 -0.34925,2.68839 -0.40512,3.59477 -0.40783,2.24584 -0.74999,4.93932 -0.84162,6.21095 -0.0843,1.16806 -0.44775,3.5761 -0.80777,5.35073 l -0.65551,3.22713 -0.33259,-7.04073 c -0.14584,-3.08533 -0.42825,-6.63362 -0.62255,-8.18341 0.007,0.47361 -0.18134,-6.82071 -0.27217,-10.25992 -0.0579,-5.31812 0.0253,-8.96637 0.22839,-10.13807 0.67007,-3.85625 0.67173,-3.81441 -0.16469,-5.35164 -0.67011,-1.23116 -1.21749,-1.83154 -1.70267,-1.79822 z m 20.20686,40.07545 c -0.004,0.002 -0.0108,0.009 -0.0108,0.012 0.0179,-0.002 0.0402,-0.002 0.0601,-0.012 0.0288,-0.009 -0.0253,-2.4e-4 -0.0456,-5.8e-4 z"
       style="fill:#ffffff;stroke-width:0.281598" />
  </g>
</svg>
